<svg width="40" height="40" viewBox="0 0 40 40" fill="none" xmlns="http://www.w3.org/2000/svg">
<path id="Vector" d="M32.4171 23.8546V38.4623C32.4171 39.3115 31.7342 40 30.8917 40H1.52554C0.68303 40 0 39.3115 0 38.4623V8.86239C0 8.01323 0.68303 7.32472 1.52554 7.32472H18.8783C19.7207 7.32472 20.4039 8.01323 20.4039 8.86239C20.4039 9.71155 19.7207 10.4001 18.8783 10.4001H3.05109V36.9247H29.3661V23.8546C29.3661 23.0054 30.0491 22.3169 30.8917 22.3169C31.7342 22.3169 32.4171 23.0054 32.4171 23.8546ZM39.5532 8.4014L19.3276 28.7882C19.0561 29.0616 18.6927 29.2219 18.3092 29.2373L12.3428 29.4751C12.3227 29.4759 12.3024 29.4763 12.2825 29.4763C11.8787 29.4763 11.4904 29.3148 11.2037 29.026C10.903 28.7226 10.7413 28.3065 10.7581 27.8778L10.994 21.8636C11.0092 21.4771 11.1683 21.1107 11.4397 20.8371L31.6653 0.450324C31.9514 0.162013 32.3392 0 32.7439 0C33.1486 0 33.5365 0.162013 33.8227 0.450489L39.5532 6.22667C40.1489 6.82732 40.1489 7.80075 39.5532 8.4014ZM36.3171 7.31402L32.7439 3.71219L14.0192 22.5863L13.872 26.3364L17.5923 26.1881L36.3171 7.31402Z" fill="black"/>
</svg>
