<svg width="35" height="40" viewBox="0 0 35 40" fill="none" xmlns="http://www.w3.org/2000/svg">
<g id="Group">
<path id="Vector" d="M29.9106 11.0834L28.7436 36.2323C28.7208 36.7242 28.2335 37.1429 27.6819 37.1429H7.31831C6.76697 37.1429 6.27936 36.723 6.25659 36.2323L5.08965 11.0834C5.05307 10.2951 4.31176 9.68268 3.43388 9.71553C2.55601 9.74837 1.87401 10.414 1.91058 11.2023L3.07753 36.3513C3.17133 38.3726 5.06151 40 7.31831 40H27.6819C29.9374 40 31.8288 38.3752 31.9227 36.3513L33.0896 11.2023C33.1262 10.414 32.4442 9.74837 31.5663 9.71553C30.6885 9.68268 29.9472 10.2951 29.9106 11.0834Z" fill="black"/>
<path id="Vector_2" d="M16.2273 13.4286V32.8571C16.2273 33.4883 16.7971 34 17.5 34C18.2029 34 18.7727 33.4883 18.7727 32.8571V13.4286C18.7727 12.7974 18.2029 12.2857 17.5 12.2857C16.7971 12.2857 16.2273 12.7974 16.2273 13.4286Z" fill="black"/>
<path id="Vector_3" d="M9.22786 13.4622L9.86422 32.8907C9.88488 33.5217 10.4712 34.0181 11.1738 33.9995C11.8764 33.981 12.4292 33.4545 12.4086 32.8235L11.7722 13.395C11.7515 12.7641 11.1652 12.2677 10.4626 12.2862C9.76001 12.3048 9.20719 12.8313 9.22786 13.4622Z" fill="black"/>
<path id="Vector_4" d="M23.2277 13.395L22.5914 32.8235C22.5707 33.4545 23.1235 33.981 23.8261 33.9995C24.5287 34.0181 25.1151 33.5217 25.1357 32.8907L25.7721 13.4622C25.7928 12.8313 25.2399 12.3048 24.5373 12.2862C23.8347 12.2677 23.2484 12.7641 23.2277 13.395Z" fill="black"/>
<path id="Vector_5" d="M1.59091 7.71429H33.4091C34.2877 7.71429 35 7.0747 35 6.28572C35 5.49674 34.2877 4.85715 33.4091 4.85715H1.59091C0.712274 4.85715 0 5.49674 0 6.28572C0 7.0747 0.712274 7.71429 1.59091 7.71429Z" fill="black"/>
<path id="Vector_6" d="M12.6661 5.82103L13.3285 3.73902C13.4704 3.29309 14.1142 2.85714 14.631 2.85714H20.3691C20.8862 2.85714 21.5295 3.29272 21.6715 3.73902L22.334 5.82103L25.3934 5.03611L24.7309 2.9541C24.1986 1.28105 22.3066 0 20.3691 0H14.631C12.6937 0 10.8013 1.28151 10.2691 2.9541L9.60669 5.03611L12.6661 5.82103Z" fill="black"/>
</g>
</svg>
